<?xml version="1.0" encoding="UTF-8" standalone="no"?>
<svg
   width="1024"
   height="1024"
   viewBox="0 0 1024 1024"
   version="1.1"
   id="svg46"
   sodipodi:docname="helix-mute.svg"
   inkscape:version="1.3 (0e150ed, 2023-07-21)"
   xmlns:inkscape="http://www.inkscape.org/namespaces/inkscape"
   xmlns:sodipodi="http://sodipodi.sourceforge.net/DTD/sodipodi-0.dtd"
   xmlns="http://www.w3.org/2000/svg"
   xmlns:svg="http://www.w3.org/2000/svg">
  <sodipodi:namedview
     id="namedview46"
     pagecolor="#ffffff"
     bordercolor="#000000"
     borderopacity="0.25"
     inkscape:showpageshadow="2"
     inkscape:pageopacity="0.0"
     inkscape:pagecheckerboard="0"
     inkscape:deskcolor="#d1d1d1"
     inkscape:zoom="0.91301405"
     inkscape:cx="342.82057"
     inkscape:cy="224.53105"
     inkscape:window-width="3360"
     inkscape:window-height="1713"
     inkscape:window-x="0"
     inkscape:window-y="30"
     inkscape:window-maximized="1"
     inkscape:current-layer="svg46" />
  <defs
     id="defs8">
    <linearGradient
       id="bg"
       x1="0"
       y1="0"
       x2="0"
       y2="1">
      <stop
         offset="0"
         stop-color="#151D3A"
         id="stop1" />
      <stop
         offset="1"
         stop-color="#070A16"
         id="stop2" />
    </linearGradient>
    <radialGradient
       id="glow"
       cx="0.5"
       cy="0.46"
       r="0.55">
      <stop
         offset="0"
         stop-color="#33459C"
         stop-opacity="0.55"
         id="stop3" />
      <stop
         offset="1"
         stop-color="#33459C"
         stop-opacity="0"
         id="stop4" />
    </radialGradient>
    <linearGradient
       id="gradA"
       x1="0"
       y1="0"
       x2="0"
       y2="1">
      <stop
         offset="0"
         stop-color="#5FE9FF"
         id="stop5" />
      <stop
         offset="1"
         stop-color="#2F7BFF"
         id="stop6" />
    </linearGradient>
    <linearGradient
       id="gradB"
       x1="0"
       y1="0"
       x2="0"
       y2="1">
      <stop
         offset="0"
         stop-color="#C98BFF"
         id="stop7" />
      <stop
         offset="1"
         stop-color="#FF5FA6"
         id="stop8" />
    </linearGradient>
    <filter
       id="soft"
       x="-0.11222235"
       y="-0.059021407"
       width="1.2244447"
       height="1.1180428">
      <feGaussianBlur
         stdDeviation="9"
         id="feGaussianBlur8" />
    </filter>
  </defs>
  <g
     transform="rotate(15 512.0 512.0)"
     id="g46">
    <!-- neon bloom -->
    <!-- back (receding) strand segments -->
    <g
       id="g20">
      <path
         d="M 683.96 251.33 L 683.83 252.27 L 683.61 253.20 L 683.31 254.14 L 682.92 255.07 L 682.44 256.01 L 681.88 256.94 L 681.24 257.87 L 680.50 258.81 L 679.69 259.74 L 678.79 260.68 L 677.80 261.61 L 676.73 262.55 L 675.58 263.48 L 674.35 264.41 L 673.03 265.35 L 671.64 266.28 L 670.16 267.22 L 668.60 268.15 L 666.97 269.09 L 665.25 270.02 L 663.46 270.95 L 661.60 271.89 L 659.65 272.82 L 657.64 273.76 L 655.55 274.69 L 653.38 275.63 L 651.15 276.56 L 648.85 277.49 L 646.48 278.43 L 644.03 279.36 L 641.53 280.30 L 638.96 281.23 L 636.32 282.17 L 633.62 283.10 L 630.86 284.03 L 628.04 284.97 L 625.17 285.90 L 622.23 286.84 L 619.24 287.77 L 616.20 288.71 L 613.10 289.64 L 609.95 290.57 L 606.75 291.51 L 603.51 292.44 L 600.22 293.38 L 596.88 294.31 L 593.51 295.25 L 590.09 296.18 L 586.63 297.11 L 583.13 298.05 L 579.60 298.98 L 576.03 299.92 L 572.44 300.85 L 568.81 301.79 L 565.15 302.72 L 561.47 303.65 L 557.76 304.59 L 554.03 305.52 L 550.27 306.46 L 546.50 307.39 L 542.71 308.33 L 538.91 309.26 L 535.09 310.19 L 531.26 311.13 L 527.42 312.06 L 523.57 313.00 L 519.72 313.93 L 515.86 314.87 L 512.00 315.80 L 508.14 316.73 L 504.28 317.67 L 500.43 318.60 L 496.58 319.54 L 492.74 320.47 L 488.91 321.41 L 485.09 322.34 L 481.29 323.27 L 477.50 324.21 L 473.73 325.14 L 469.97 326.08 L 466.24 327.01 L 462.53 327.95 L 458.85 328.88 L 455.19 329.81 L 451.56 330.75 L 447.97 331.68 L 444.40 332.62 L 440.87 333.55 L 437.37 334.49 L 433.91 335.42 L 430.49 336.35 L 427.12 337.29 L 423.78 338.22 L 420.49 339.16 L 417.25 340.09 L 414.05 341.03 L 410.90 341.96 L 407.80 342.89 L 404.76 343.83 L 401.77 344.76 L 398.83 345.70 L 395.96 346.63 L 393.14 347.57 L 390.38 348.50 L 387.68 349.43 L 385.04 350.37 L 382.47 351.30 L 379.97 352.24 L 377.52 353.17 L 375.15 354.11 L 372.85 355.04 L 370.62 355.97 L 368.45 356.91 L 366.36 357.84 L 364.35 358.78 L 362.40 359.71 L 360.54 360.65 L 358.75 361.58 L 357.03 362.51 L 355.40 363.45 L 353.84 364.38 L 352.36 365.32 L 350.97 366.25 L 349.65 367.19 L 348.42 368.12 L 347.27 369.05 L 346.20 369.99 L 345.21 370.92 L 344.31 371.86 L 343.50 372.79 L 342.76 373.73 L 342.12 374.66 L 341.56 375.59 L 341.08 376.53 L 340.69 377.46 L 340.39 378.40 L 340.17 379.33 L 340.04 380.27 L 340.00 381.20 L 340.04 382.13"
         fill="none"
         stroke="#8899BB"
         stroke-width="23"
         stroke-linecap="round"
         stroke-linejoin="round"
         opacity="0.45"
         id="path15" />
      <path
         d="M 683.96 512.93 L 683.83 513.87 L 683.61 514.80 L 683.31 515.74 L 682.92 516.67 L 682.44 517.61 L 681.88 518.54 L 681.24 519.47 L 680.50 520.41 L 679.69 521.34 L 678.79 522.28 L 677.80 523.21 L 676.73 524.15 L 675.58 525.08 L 674.35 526.01 L 673.03 526.95 L 671.64 527.88 L 670.16 528.82 L 668.60 529.75 L 666.97 530.69 L 665.25 531.62 L 663.46 532.55 L 661.60 533.49 L 659.65 534.42 L 657.64 535.36 L 655.55 536.29 L 653.38 537.23 L 651.15 538.16 L 648.85 539.09 L 646.48 540.03 L 644.03 540.96 L 641.53 541.90 L 638.96 542.83 L 636.32 543.77 L 633.62 544.70 L 630.86 545.63 L 628.04 546.57 L 625.17 547.50 L 622.23 548.44 L 619.24 549.37 L 616.20 550.31 L 613.10 551.24 L 609.95 552.17 L 606.75 553.11 L 603.51 554.04 L 600.22 554.98 L 596.88 555.91 L 593.51 556.85 L 590.09 557.78 L 586.63 558.71 L 583.13 559.65 L 579.60 560.58 L 576.03 561.52 L 572.44 562.45 L 568.81 563.39 L 565.15 564.32 L 561.47 565.25 L 557.76 566.19 L 554.03 567.12 L 550.27 568.06 L 546.50 568.99 L 542.71 569.93 L 538.91 570.86 L 535.09 571.79 L 531.26 572.73 L 527.42 573.66 L 523.57 574.60 L 519.72 575.53 L 515.86 576.47 L 512.00 577.40 L 508.14 578.33 L 504.28 579.27 L 500.43 580.20 L 496.58 581.14 L 492.74 582.07 L 488.91 583.01 L 485.09 583.94 L 481.29 584.87 L 477.50 585.81 L 473.73 586.74 L 469.97 587.68 L 466.24 588.61 L 462.53 589.55 L 458.85 590.48 L 455.19 591.41 L 451.56 592.35 L 447.97 593.28 L 444.40 594.22 L 440.87 595.15 L 437.37 596.09 L 433.91 597.02 L 430.49 597.95 L 427.12 598.89 L 423.78 599.82 L 420.49 600.76 L 417.25 601.69 L 414.05 602.63 L 410.90 603.56 L 407.80 604.49 L 404.76 605.43 L 401.77 606.36 L 398.83 607.30 L 395.96 608.23 L 393.14 609.17 L 390.38 610.10 L 387.68 611.03 L 385.04 611.97 L 382.47 612.90 L 379.97 613.84 L 377.52 614.77 L 375.15 615.71 L 372.85 616.64 L 370.62 617.57 L 368.45 618.51 L 366.36 619.44 L 364.35 620.38 L 362.40 621.31 L 360.54 622.25 L 358.75 623.18 L 357.03 624.11 L 355.40 625.05 L 353.84 625.98 L 352.36 626.92 L 350.97 627.85 L 349.65 628.79 L 348.42 629.72 L 347.27 630.65 L 346.20 631.59 L 345.21 632.52 L 344.31 633.46 L 343.50 634.39 L 342.76 635.33 L 342.12 636.26 L 341.56 637.19 L 341.08 638.13 L 340.69 639.06 L 340.39 640.00 L 340.17 640.93 L 340.04 641.87 L 340.00 642.80 L 340.04 643.73"
         fill="none"
         stroke="#8899BB"
         stroke-width="23"
         stroke-linecap="round"
         stroke-linejoin="round"
         opacity="0.45"
         id="path16" />
      <path
         d="M 683.96 774.53 L 683.83 775.47 L 683.61 776.40 L 683.31 777.34 L 682.92 778.27 L 682.44 779.21 L 681.88 780.14 L 681.24 781.07 L 680.50 782.01 L 679.69 782.94 L 678.79 783.88 L 677.80 784.81 L 676.73 785.75 L 675.58 786.68 L 674.35 787.61 L 673.03 788.55 L 671.64 789.48 L 670.16 790.42 L 668.60 791.35 L 666.97 792.29 L 665.25 793.22 L 663.46 794.15 L 661.60 795.09 L 659.65 796.02 L 657.64 796.96 L 655.55 797.89 L 653.38 798.83 L 651.15 799.76 L 648.85 800.69 L 646.48 801.63 L 644.03 802.56 L 641.53 803.50 L 638.96 804.43 L 636.32 805.37 L 633.62 806.30 L 630.86 807.23 L 628.04 808.17 L 625.17 809.10 L 622.23 810.04 L 619.24 810.97 L 616.20 811.91 L 613.10 812.84 L 609.95 813.77 L 606.75 814.71 L 603.51 815.64 L 600.22 816.58 L 596.88 817.51 L 593.51 818.45 L 590.09 819.38 L 586.63 820.31 L 583.13 821.25 L 579.60 822.18 L 576.03 823.12 L 572.44 824.05 L 568.81 824.99 L 565.15 825.92 L 561.47 826.85 L 557.76 827.79 L 554.03 828.72 L 550.27 829.66 L 546.50 830.59 L 542.71 831.53 L 538.91 832.46 L 535.09 833.39 L 531.26 834.33 L 527.42 835.26 L 523.57 836.20 L 519.72 837.13 L 515.86 838.07 L 512.00 839.00"
         fill="none"
         stroke="#8899BB"
         stroke-width="23"
         stroke-linecap="round"
         stroke-linejoin="round"
         opacity="0.45"
         id="path17" />
      <path
         d="M 512.00 185.00 L 508.14 185.93 L 504.28 186.87 L 500.43 187.80 L 496.58 188.74 L 492.74 189.67 L 488.91 190.61 L 485.09 191.54 L 481.29 192.47 L 477.50 193.41 L 473.73 194.34 L 469.97 195.28 L 466.24 196.21 L 462.53 197.15 L 458.85 198.08 L 455.19 199.01 L 451.56 199.95 L 447.97 200.88 L 444.40 201.82 L 440.87 202.75 L 437.37 203.69 L 433.91 204.62 L 430.49 205.55 L 427.12 206.49 L 423.78 207.42 L 420.49 208.36 L 417.25 209.29 L 414.05 210.23 L 410.90 211.16 L 407.80 212.09 L 404.76 213.03 L 401.77 213.96 L 398.83 214.90 L 395.96 215.83 L 393.14 216.77 L 390.38 217.70 L 387.68 218.63 L 385.04 219.57 L 382.47 220.50 L 379.97 221.44 L 377.52 222.37 L 375.15 223.31 L 372.85 224.24 L 370.62 225.17 L 368.45 226.11 L 366.36 227.04 L 364.35 227.98 L 362.40 228.91 L 360.54 229.85 L 358.75 230.78 L 357.03 231.71 L 355.40 232.65 L 353.84 233.58 L 352.36 234.52 L 350.97 235.45 L 349.65 236.39 L 348.42 237.32 L 347.27 238.25 L 346.20 239.19 L 345.21 240.12 L 344.31 241.06 L 343.50 241.99 L 342.76 242.93 L 342.12 243.86 L 341.56 244.79 L 341.08 245.73 L 340.69 246.66 L 340.39 247.60 L 340.17 248.53 L 340.04 249.47 L 340.00 250.40 L 340.04 251.33"
         fill="none"
         stroke="#9988AA"
         stroke-width="23"
         stroke-linecap="round"
         stroke-linejoin="round"
         opacity="0.45"
         id="path18" />
      <path
         d="M 683.96 382.13 L 683.83 383.07 L 683.61 384.00 L 683.31 384.94 L 682.92 385.87 L 682.44 386.81 L 681.88 387.74 L 681.24 388.67 L 680.50 389.61 L 679.69 390.54 L 678.79 391.48 L 677.80 392.41 L 676.73 393.35 L 675.58 394.28 L 674.35 395.21 L 673.03 396.15 L 671.64 397.08 L 670.16 398.02 L 668.60 398.95 L 666.97 399.89 L 665.25 400.82 L 663.46 401.75 L 661.60 402.69 L 659.65 403.62 L 657.64 404.56 L 655.55 405.49 L 653.38 406.43 L 651.15 407.36 L 648.85 408.29 L 646.48 409.23 L 644.03 410.16 L 641.53 411.10 L 638.96 412.03 L 636.32 412.97 L 633.62 413.90 L 630.86 414.83 L 628.04 415.77 L 625.17 416.70 L 622.23 417.64 L 619.24 418.57 L 616.20 419.51 L 613.10 420.44 L 609.95 421.37 L 606.75 422.31 L 603.51 423.24 L 600.22 424.18 L 596.88 425.11 L 593.51 426.05 L 590.09 426.98 L 586.63 427.91 L 583.13 428.85 L 579.60 429.78 L 576.03 430.72 L 572.44 431.65 L 568.81 432.59 L 565.15 433.52 L 561.47 434.45 L 557.76 435.39 L 554.03 436.32 L 550.27 437.26 L 546.50 438.19 L 542.71 439.13 L 538.91 440.06 L 535.09 440.99 L 531.26 441.93 L 527.42 442.86 L 523.57 443.80 L 519.72 444.73 L 515.86 445.67 L 512.00 446.60 L 508.14 447.53 L 504.28 448.47 L 500.43 449.40 L 496.58 450.34 L 492.74 451.27 L 488.91 452.21 L 485.09 453.14 L 481.29 454.07 L 477.50 455.01 L 473.73 455.94 L 469.97 456.88 L 466.24 457.81 L 462.53 458.75 L 458.85 459.68 L 455.19 460.61 L 451.56 461.55 L 447.97 462.48 L 444.40 463.42 L 440.87 464.35 L 437.37 465.29 L 433.91 466.22 L 430.49 467.15 L 427.12 468.09 L 423.78 469.02 L 420.49 469.96 L 417.25 470.89 L 414.05 471.83 L 410.90 472.76 L 407.80 473.69 L 404.76 474.63 L 401.77 475.56 L 398.83 476.50 L 395.96 477.43 L 393.14 478.37 L 390.38 479.30 L 387.68 480.23 L 385.04 481.17 L 382.47 482.10 L 379.97 483.04 L 377.52 483.97 L 375.15 484.91 L 372.85 485.84 L 370.62 486.77 L 368.45 487.71 L 366.36 488.64 L 364.35 489.58 L 362.40 490.51 L 360.54 491.45 L 358.75 492.38 L 357.03 493.31 L 355.40 494.25 L 353.84 495.18 L 352.36 496.12 L 350.97 497.05 L 349.65 497.99 L 348.42 498.92 L 347.27 499.85 L 346.20 500.79 L 345.21 501.72 L 344.31 502.66 L 343.50 503.59 L 342.76 504.53 L 342.12 505.46 L 341.56 506.39 L 341.08 507.33 L 340.69 508.26 L 340.39 509.20 L 340.17 510.13 L 340.04 511.07 L 340.00 512.00 L 340.04 512.93"
         fill="none"
         stroke="#9988AA"
         stroke-width="23"
         stroke-linecap="round"
         stroke-linejoin="round"
         opacity="0.45"
         id="path19" />
      <path
         d="M 683.96 643.73 L 683.83 644.67 L 683.61 645.60 L 683.31 646.54 L 682.92 647.47 L 682.44 648.41 L 681.88 649.34 L 681.24 650.27 L 680.50 651.21 L 679.69 652.14 L 678.79 653.08 L 677.80 654.01 L 676.73 654.95 L 675.58 655.88 L 674.35 656.81 L 673.03 657.75 L 671.64 658.68 L 670.16 659.62 L 668.60 660.55 L 666.97 661.49 L 665.25 662.42 L 663.46 663.35 L 661.60 664.29 L 659.65 665.22 L 657.64 666.16 L 655.55 667.09 L 653.38 668.03 L 651.15 668.96 L 648.85 669.89 L 646.48 670.83 L 644.03 671.76 L 641.53 672.70 L 638.96 673.63 L 636.32 674.57 L 633.62 675.50 L 630.86 676.43 L 628.04 677.37 L 625.17 678.30 L 622.23 679.24 L 619.24 680.17 L 616.20 681.11 L 613.10 682.04 L 609.95 682.97 L 606.75 683.91 L 603.51 684.84 L 600.22 685.78 L 596.88 686.71 L 593.51 687.65 L 590.09 688.58 L 586.63 689.51 L 583.13 690.45 L 579.60 691.38 L 576.03 692.32 L 572.44 693.25 L 568.81 694.19 L 565.15 695.12 L 561.47 696.05 L 557.76 696.99 L 554.03 697.92 L 550.27 698.86 L 546.50 699.79 L 542.71 700.73 L 538.91 701.66 L 535.09 702.59 L 531.26 703.53 L 527.42 704.46 L 523.57 705.40 L 519.72 706.33 L 515.86 707.27 L 512.00 708.20 L 508.14 709.13 L 504.28 710.07 L 500.43 711.00 L 496.58 711.94 L 492.74 712.87 L 488.91 713.81 L 485.09 714.74 L 481.29 715.67 L 477.50 716.61 L 473.73 717.54 L 469.97 718.48 L 466.24 719.41 L 462.53 720.35 L 458.85 721.28 L 455.19 722.21 L 451.56 723.15 L 447.97 724.08 L 444.40 725.02 L 440.87 725.95 L 437.37 726.89 L 433.91 727.82 L 430.49 728.75 L 427.12 729.69 L 423.78 730.62 L 420.49 731.56 L 417.25 732.49 L 414.05 733.43 L 410.90 734.36 L 407.80 735.29 L 404.76 736.23 L 401.77 737.16 L 398.83 738.10 L 395.96 739.03 L 393.14 739.97 L 390.38 740.90 L 387.68 741.83 L 385.04 742.77 L 382.47 743.70 L 379.97 744.64 L 377.52 745.57 L 375.15 746.51 L 372.85 747.44 L 370.62 748.37 L 368.45 749.31 L 366.36 750.24 L 364.35 751.18 L 362.40 752.11 L 360.54 753.05 L 358.75 753.98 L 357.03 754.91 L 355.40 755.85 L 353.84 756.78 L 352.36 757.72 L 350.97 758.65 L 349.65 759.59 L 348.42 760.52 L 347.27 761.45 L 346.20 762.39 L 345.21 763.32 L 344.31 764.26 L 343.50 765.19 L 342.76 766.13 L 342.12 767.06 L 341.56 767.99 L 341.08 768.93 L 340.69 769.86 L 340.39 770.80 L 340.17 771.73 L 340.04 772.67 L 340.00 773.60 L 340.04 774.53"
         fill="none"
         stroke="#9988AA"
         stroke-width="23"
         stroke-linecap="round"
         stroke-linejoin="round"
         opacity="0.45"
         id="path20" />
    </g>
    <!-- base-pair rungs -->
    <g
       id="g40">
      <line
         x1="624.64"
         y1="214.73"
         x2="399.36"
         y2="214.73"
         stroke="#99AABB"
         stroke-width="13"
         stroke-linecap="round"
         opacity="0.5"
         id="line20" />
      <line
         x1="682.25"
         y1="244.45"
         x2="341.75"
         y2="244.45"
         stroke="#99AABB"
         stroke-width="13"
         stroke-linecap="round"
         opacity="0.5"
         id="line21" />
      <line
         x1="656.70"
         y1="274.18"
         x2="367.30"
         y2="274.18"
         stroke="#99AABB"
         stroke-width="13"
         stroke-linecap="round"
         opacity="0.5"
         id="line22" />
      <line
         x1="560.46"
         y1="303.91"
         x2="463.54"
         y2="303.91"
         stroke="#99AABB"
         stroke-width="13"
         stroke-linecap="round"
         opacity="0.5"
         id="line23" />
      <line
         x1="440.55"
         y1="333.64"
         x2="583.45"
         y2="333.64"
         stroke="#99AABB"
         stroke-width="13"
         stroke-linecap="round"
         opacity="0.5"
         id="line24" />
      <line
         x1="355.54"
         y1="363.36"
         x2="668.46"
         y2="363.36"
         stroke="#99AABB"
         stroke-width="13"
         stroke-linecap="round"
         opacity="0.5"
         id="line25" />
      <line
         x1="346.97"
         y1="393.09"
         x2="677.03"
         y2="393.09"
         stroke="#99AABB"
         stroke-width="13"
         stroke-linecap="round"
         opacity="0.5"
         id="line26" />
      <line
         x1="419.01"
         y1="422.82"
         x2="604.99"
         y2="422.82"
         stroke="#99AABB"
         stroke-width="13"
         stroke-linecap="round"
         opacity="0.5"
         id="line27" />
      <line
         x1="536.48"
         y1="452.55"
         x2="487.52"
         y2="452.55"
         stroke="#99AABB"
         stroke-width="13"
         stroke-linecap="round"
         opacity="0.5"
         id="line28" />
      <line
         x1="641.99"
         y1="482.27"
         x2="382.01"
         y2="482.27"
         stroke="#99AABB"
         stroke-width="13"
         stroke-linecap="round"
         opacity="0.5"
         id="line29" />
      <line
         x1="684.00"
         y1="512.00"
         x2="340.00"
         y2="512.00"
         stroke="#99AABB"
         stroke-width="13"
         stroke-linecap="round"
         opacity="0.5"
         id="line30" />
      <line
         x1="641.99"
         y1="541.73"
         x2="382.01"
         y2="541.73"
         stroke="#99AABB"
         stroke-width="13"
         stroke-linecap="round"
         opacity="0.5"
         id="line31" />
      <line
         x1="536.48"
         y1="571.45"
         x2="487.52"
         y2="571.45"
         stroke="#99AABB"
         stroke-width="13"
         stroke-linecap="round"
         opacity="0.5"
         id="line32" />
      <line
         x1="419.01"
         y1="601.18"
         x2="604.99"
         y2="601.18"
         stroke="#99AABB"
         stroke-width="13"
         stroke-linecap="round"
         opacity="0.5"
         id="line33" />
      <line
         x1="346.97"
         y1="630.91"
         x2="677.03"
         y2="630.91"
         stroke="#99AABB"
         stroke-width="13"
         stroke-linecap="round"
         opacity="0.5"
         id="line34" />
      <line
         x1="355.54"
         y1="660.64"
         x2="668.46"
         y2="660.64"
         stroke="#99AABB"
         stroke-width="13"
         stroke-linecap="round"
         opacity="0.5"
         id="line35" />
      <line
         x1="440.55"
         y1="690.36"
         x2="583.45"
         y2="690.36"
         stroke="#99AABB"
         stroke-width="13"
         stroke-linecap="round"
         opacity="0.5"
         id="line36" />
      <line
         x1="560.46"
         y1="720.09"
         x2="463.54"
         y2="720.09"
         stroke="#99AABB"
         stroke-width="13"
         stroke-linecap="round"
         opacity="0.5"
         id="line37" />
      <line
         x1="656.70"
         y1="749.82"
         x2="367.30"
         y2="749.82"
         stroke="#99AABB"
         stroke-width="13"
         stroke-linecap="round"
         opacity="0.5"
         id="line38" />
      <line
         x1="682.25"
         y1="779.55"
         x2="341.75"
         y2="779.55"
         stroke="#99AABB"
         stroke-width="13"
         stroke-linecap="round"
         opacity="0.5"
         id="line39" />
      <line
         x1="624.64"
         y1="809.27"
         x2="399.36"
         y2="809.27"
         stroke="#99AABB"
         stroke-width="13"
         stroke-linecap="round"
         opacity="0.5"
         id="line40" />
    </g>
    <!-- front strand segments -->
    <g
       id="g45">
      <path
         d="M 512.00 185.00 L 515.86 185.93 L 519.72 186.87 L 523.57 187.80 L 527.42 188.74 L 531.26 189.67 L 535.09 190.61 L 538.91 191.54 L 542.71 192.47 L 546.50 193.41 L 550.27 194.34 L 554.03 195.28 L 557.76 196.21 L 561.47 197.15 L 565.15 198.08 L 568.81 199.01 L 572.44 199.95 L 576.03 200.88 L 579.60 201.82 L 583.13 202.75 L 586.63 203.69 L 590.09 204.62 L 593.51 205.55 L 596.88 206.49 L 600.22 207.42 L 603.51 208.36 L 606.75 209.29 L 609.95 210.23 L 613.10 211.16 L 616.20 212.09 L 619.24 213.03 L 622.23 213.96 L 625.17 214.90 L 628.04 215.83 L 630.86 216.77 L 633.62 217.70 L 636.32 218.63 L 638.96 219.57 L 641.53 220.50 L 644.03 221.44 L 646.48 222.37 L 648.85 223.31 L 651.15 224.24 L 653.38 225.17 L 655.55 226.11 L 657.64 227.04 L 659.65 227.98 L 661.60 228.91 L 663.46 229.85 L 665.25 230.78 L 666.97 231.71 L 668.60 232.65 L 670.16 233.58 L 671.64 234.52 L 673.03 235.45 L 674.35 236.39 L 675.58 237.32 L 676.73 238.25 L 677.80 239.19 L 678.79 240.12 L 679.69 241.06 L 680.50 241.99 L 681.24 242.93 L 681.88 243.86 L 682.44 244.79 L 682.92 245.73 L 683.31 246.66 L 683.61 247.60 L 683.83 248.53 L 683.96 249.47 L 684.00 250.40 L 683.96 251.33"
         fill="none"
         stroke="#8899BB"
         stroke-width="34"
         stroke-linecap="round"
         stroke-linejoin="round"
         opacity="1.0"
         id="path40" />
      <path
         d="M 340.04 382.13 L 340.17 383.07 L 340.39 384.00 L 340.69 384.94 L 341.08 385.87 L 341.56 386.81 L 342.12 387.74 L 342.76 388.67 L 343.50 389.61 L 344.31 390.54 L 345.21 391.48 L 346.20 392.41 L 347.27 393.35 L 348.42 394.28 L 349.65 395.21 L 350.97 396.15 L 352.36 397.08 L 353.84 398.02 L 355.40 398.95 L 357.03 399.89 L 358.75 400.82 L 360.54 401.75 L 362.40 402.69 L 364.35 403.62 L 366.36 404.56 L 368.45 405.49 L 370.62 406.43 L 372.85 407.36 L 375.15 408.29 L 377.52 409.23 L 379.97 410.16 L 382.47 411.10 L 385.04 412.03 L 387.68 412.97 L 390.38 413.90 L 393.14 414.83 L 395.96 415.77 L 398.83 416.70 L 401.77 417.64 L 404.76 418.57 L 407.80 419.51 L 410.90 420.44 L 414.05 421.37 L 417.25 422.31 L 420.49 423.24 L 423.78 424.18 L 427.12 425.11 L 430.49 426.05 L 433.91 426.98 L 437.37 427.91 L 440.87 428.85 L 444.40 429.78 L 447.97 430.72 L 451.56 431.65 L 455.19 432.59 L 458.85 433.52 L 462.53 434.45 L 466.24 435.39 L 469.97 436.32 L 473.73 437.26 L 477.50 438.19 L 481.29 439.13 L 485.09 440.06 L 488.91 440.99 L 492.74 441.93 L 496.58 442.86 L 500.43 443.80 L 504.28 444.73 L 508.14 445.67 L 512.00 446.60 L 515.86 447.53 L 519.72 448.47 L 523.57 449.40 L 527.42 450.34 L 531.26 451.27 L 535.09 452.21 L 538.91 453.14 L 542.71 454.07 L 546.50 455.01 L 550.27 455.94 L 554.03 456.88 L 557.76 457.81 L 561.47 458.75 L 565.15 459.68 L 568.81 460.61 L 572.44 461.55 L 576.03 462.48 L 579.60 463.42 L 583.13 464.35 L 586.63 465.29 L 590.09 466.22 L 593.51 467.15 L 596.88 468.09 L 600.22 469.02 L 603.51 469.96 L 606.75 470.89 L 609.95 471.83 L 613.10 472.76 L 616.20 473.69 L 619.24 474.63 L 622.23 475.56 L 625.17 476.50 L 628.04 477.43 L 630.86 478.37 L 633.62 479.30 L 636.32 480.23 L 638.96 481.17 L 641.53 482.10 L 644.03 483.04 L 646.48 483.97 L 648.85 484.91 L 651.15 485.84 L 653.38 486.77 L 655.55 487.71 L 657.64 488.64 L 659.65 489.58 L 661.60 490.51 L 663.46 491.45 L 665.25 492.38 L 666.97 493.31 L 668.60 494.25 L 670.16 495.18 L 671.64 496.12 L 673.03 497.05 L 674.35 497.99 L 675.58 498.92 L 676.73 499.85 L 677.80 500.79 L 678.79 501.72 L 679.69 502.66 L 680.50 503.59 L 681.24 504.53 L 681.88 505.46 L 682.44 506.39 L 682.92 507.33 L 683.31 508.26 L 683.61 509.20 L 683.83 510.13 L 683.96 511.07 L 684.00 512.00 L 683.96 512.93"
         fill="none"
         stroke="#8899BB"
         stroke-width="34"
         stroke-linecap="round"
         stroke-linejoin="round"
         opacity="1.0"
         id="path41" />
      <path
         d="M 340.04 643.73 L 340.17 644.67 L 340.39 645.60 L 340.69 646.54 L 341.08 647.47 L 341.56 648.41 L 342.12 649.34 L 342.76 650.27 L 343.50 651.21 L 344.31 652.14 L 345.21 653.08 L 346.20 654.01 L 347.27 654.95 L 348.42 655.88 L 349.65 656.81 L 350.97 657.75 L 352.36 658.68 L 353.84 659.62 L 355.40 660.55 L 357.03 661.49 L 358.75 662.42 L 360.54 663.35 L 362.40 664.29 L 364.35 665.22 L 366.36 666.16 L 368.45 667.09 L 370.62 668.03 L 372.85 668.96 L 375.15 669.89 L 377.52 670.83 L 379.97 671.76 L 382.47 672.70 L 385.04 673.63 L 387.68 674.57 L 390.38 675.50 L 393.14 676.43 L 395.96 677.37 L 398.83 678.30 L 401.77 679.24 L 404.76 680.17 L 407.80 681.11 L 410.90 682.04 L 414.05 682.97 L 417.25 683.91 L 420.49 684.84 L 423.78 685.78 L 427.12 686.71 L 430.49 687.65 L 433.91 688.58 L 437.37 689.51 L 440.87 690.45 L 444.40 691.38 L 447.97 692.32 L 451.56 693.25 L 455.19 694.19 L 458.85 695.12 L 462.53 696.05 L 466.24 696.99 L 469.97 697.92 L 473.73 698.86 L 477.50 699.79 L 481.29 700.73 L 485.09 701.66 L 488.91 702.59 L 492.74 703.53 L 496.58 704.46 L 500.43 705.40 L 504.28 706.33 L 508.14 707.27 L 512.00 708.20 L 515.86 709.13 L 519.72 710.07 L 523.57 711.00 L 527.42 711.94 L 531.26 712.87 L 535.09 713.81 L 538.91 714.74 L 542.71 715.67 L 546.50 716.61 L 550.27 717.54 L 554.03 718.48 L 557.76 719.41 L 561.47 720.35 L 565.15 721.28 L 568.81 722.21 L 572.44 723.15 L 576.03 724.08 L 579.60 725.02 L 583.13 725.95 L 586.63 726.89 L 590.09 727.82 L 593.51 728.75 L 596.88 729.69 L 600.22 730.62 L 603.51 731.56 L 606.75 732.49 L 609.95 733.43 L 613.10 734.36 L 616.20 735.29 L 619.24 736.23 L 622.23 737.16 L 625.17 738.10 L 628.04 739.03 L 630.86 739.97 L 633.62 740.90 L 636.32 741.83 L 638.96 742.77 L 641.53 743.70 L 644.03 744.64 L 646.48 745.57 L 648.85 746.51 L 651.15 747.44 L 653.38 748.37 L 655.55 749.31 L 657.64 750.24 L 659.65 751.18 L 661.60 752.11 L 663.46 753.05 L 665.25 753.98 L 666.97 754.91 L 668.60 755.85 L 670.16 756.78 L 671.64 757.72 L 673.03 758.65 L 674.35 759.59 L 675.58 760.52 L 676.73 761.45 L 677.80 762.39 L 678.79 763.32 L 679.69 764.26 L 680.50 765.19 L 681.24 766.13 L 681.88 767.06 L 682.44 767.99 L 682.92 768.93 L 683.31 769.86 L 683.61 770.80 L 683.83 771.73 L 683.96 772.67 L 684.00 773.60 L 683.96 774.53"
         fill="none"
         stroke="#8899BB"
         stroke-width="34"
         stroke-linecap="round"
         stroke-linejoin="round"
         opacity="1.0"
         id="path42" />
      <path
         d="M 340.04 251.33 L 340.17 252.27 L 340.39 253.20 L 340.69 254.14 L 341.08 255.07 L 341.56 256.01 L 342.12 256.94 L 342.76 257.87 L 343.50 258.81 L 344.31 259.74 L 345.21 260.68 L 346.20 261.61 L 347.27 262.55 L 348.42 263.48 L 349.65 264.41 L 350.97 265.35 L 352.36 266.28 L 353.84 267.22 L 355.40 268.15 L 357.03 269.09 L 358.75 270.02 L 360.54 270.95 L 362.40 271.89 L 364.35 272.82 L 366.36 273.76 L 368.45 274.69 L 370.62 275.63 L 372.85 276.56 L 375.15 277.49 L 377.52 278.43 L 379.97 279.36 L 382.47 280.30 L 385.04 281.23 L 387.68 282.17 L 390.38 283.10 L 393.14 284.03 L 395.96 284.97 L 398.83 285.90 L 401.77 286.84 L 404.76 287.77 L 407.80 288.71 L 410.90 289.64 L 414.05 290.57 L 417.25 291.51 L 420.49 292.44 L 423.78 293.38 L 427.12 294.31 L 430.49 295.25 L 433.91 296.18 L 437.37 297.11 L 440.87 298.05 L 444.40 298.98 L 447.97 299.92 L 451.56 300.85 L 455.19 301.79 L 458.85 302.72 L 462.53 303.65 L 466.24 304.59 L 469.97 305.52 L 473.73 306.46 L 477.50 307.39 L 481.29 308.33 L 485.09 309.26 L 488.91 310.19 L 492.74 311.13 L 496.58 312.06 L 500.43 313.00 L 504.28 313.93 L 508.14 314.87 L 512.00 315.80 L 515.86 316.73 L 519.72 317.67 L 523.57 318.60 L 527.42 319.54 L 531.26 320.47 L 535.09 321.41 L 538.91 322.34 L 542.71 323.27 L 546.50 324.21 L 550.27 325.14 L 554.03 326.08 L 557.76 327.01 L 561.47 327.95 L 565.15 328.88 L 568.81 329.81 L 572.44 330.75 L 576.03 331.68 L 579.60 332.62 L 583.13 333.55 L 586.63 334.49 L 590.09 335.42 L 593.51 336.35 L 596.88 337.29 L 600.22 338.22 L 603.51 339.16 L 606.75 340.09 L 609.95 341.03 L 613.10 341.96 L 616.20 342.89 L 619.24 343.83 L 622.23 344.76 L 625.17 345.70 L 628.04 346.63 L 630.86 347.57 L 633.62 348.50 L 636.32 349.43 L 638.96 350.37 L 641.53 351.30 L 644.03 352.24 L 646.48 353.17 L 648.85 354.11 L 651.15 355.04 L 653.38 355.97 L 655.55 356.91 L 657.64 357.84 L 659.65 358.78 L 661.60 359.71 L 663.46 360.65 L 665.25 361.58 L 666.97 362.51 L 668.60 363.45 L 670.16 364.38 L 671.64 365.32 L 673.03 366.25 L 674.35 367.19 L 675.58 368.12 L 676.73 369.05 L 677.80 369.99 L 678.79 370.92 L 679.69 371.86 L 680.50 372.79 L 681.24 373.73 L 681.88 374.66 L 682.44 375.59 L 682.92 376.53 L 683.31 377.46 L 683.61 378.40 L 683.83 379.33 L 683.96 380.27 L 684.00 381.20 L 683.96 382.13"
         fill="none"
         stroke="#9988AA"
         stroke-width="34"
         stroke-linecap="round"
         stroke-linejoin="round"
         opacity="1.0"
         id="path43" />
      <path
         d="M 340.04 512.93 L 340.17 513.87 L 340.39 514.80 L 340.69 515.74 L 341.08 516.67 L 341.56 517.61 L 342.12 518.54 L 342.76 519.47 L 343.50 520.41 L 344.31 521.34 L 345.21 522.28 L 346.20 523.21 L 347.27 524.15 L 348.42 525.08 L 349.65 526.01 L 350.97 526.95 L 352.36 527.88 L 353.84 528.82 L 355.40 529.75 L 357.03 530.69 L 358.75 531.62 L 360.54 532.55 L 362.40 533.49 L 364.35 534.42 L 366.36 535.36 L 368.45 536.29 L 370.62 537.23 L 372.85 538.16 L 375.15 539.09 L 377.52 540.03 L 379.97 540.96 L 382.47 541.90 L 385.04 542.83 L 387.68 543.77 L 390.38 544.70 L 393.14 545.63 L 395.96 546.57 L 398.83 547.50 L 401.77 548.44 L 404.76 549.37 L 407.80 550.31 L 410.90 551.24 L 414.05 552.17 L 417.25 553.11 L 420.49 554.04 L 423.78 554.98 L 427.12 555.91 L 430.49 556.85 L 433.91 557.78 L 437.37 558.71 L 440.87 559.65 L 444.40 560.58 L 447.97 561.52 L 451.56 562.45 L 455.19 563.39 L 458.85 564.32 L 462.53 565.25 L 466.24 566.19 L 469.97 567.12 L 473.73 568.06 L 477.50 568.99 L 481.29 569.93 L 485.09 570.86 L 488.91 571.79 L 492.74 572.73 L 496.58 573.66 L 500.43 574.60 L 504.28 575.53 L 508.14 576.47 L 512.00 577.40 L 515.86 578.33 L 519.72 579.27 L 523.57 580.20 L 527.42 581.14 L 531.26 582.07 L 535.09 583.01 L 538.91 583.94 L 542.71 584.87 L 546.50 585.81 L 550.27 586.74 L 554.03 587.68 L 557.76 588.61 L 561.47 589.55 L 565.15 590.48 L 568.81 591.41 L 572.44 592.35 L 576.03 593.28 L 579.60 594.22 L 583.13 595.15 L 586.63 596.09 L 590.09 597.02 L 593.51 597.95 L 596.88 598.89 L 600.22 599.82 L 603.51 600.76 L 606.75 601.69 L 609.95 602.63 L 613.10 603.56 L 616.20 604.49 L 619.24 605.43 L 622.23 606.36 L 625.17 607.30 L 628.04 608.23 L 630.86 609.17 L 633.62 610.10 L 636.32 611.03 L 638.96 611.97 L 641.53 612.90 L 644.03 613.84 L 646.48 614.77 L 648.85 615.71 L 651.15 616.64 L 653.38 617.57 L 655.55 618.51 L 657.64 619.44 L 659.65 620.38 L 661.60 621.31 L 663.46 622.25 L 665.25 623.18 L 666.97 624.11 L 668.60 625.05 L 670.16 625.98 L 671.64 626.92 L 673.03 627.85 L 674.35 628.79 L 675.58 629.72 L 676.73 630.65 L 677.80 631.59 L 678.79 632.52 L 679.69 633.46 L 680.50 634.39 L 681.24 635.33 L 681.88 636.26 L 682.44 637.19 L 682.92 638.13 L 683.31 639.06 L 683.61 640.00 L 683.83 640.93 L 683.96 641.87 L 684.00 642.80 L 683.96 643.73"
         fill="none"
         stroke="#9988AA"
         stroke-width="34"
         stroke-linecap="round"
         stroke-linejoin="round"
         opacity="1.0"
         id="path44" />
      <path
         d="M 340.04 774.53 L 340.17 775.47 L 340.39 776.40 L 340.69 777.34 L 341.08 778.27 L 341.56 779.21 L 342.12 780.14 L 342.76 781.07 L 343.50 782.01 L 344.31 782.94 L 345.21 783.88 L 346.20 784.81 L 347.27 785.75 L 348.42 786.68 L 349.65 787.61 L 350.97 788.55 L 352.36 789.48 L 353.84 790.42 L 355.40 791.35 L 357.03 792.29 L 358.75 793.22 L 360.54 794.15 L 362.40 795.09 L 364.35 796.02 L 366.36 796.96 L 368.45 797.89 L 370.62 798.83 L 372.85 799.76 L 375.15 800.69 L 377.52 801.63 L 379.97 802.56 L 382.47 803.50 L 385.04 804.43 L 387.68 805.37 L 390.38 806.30 L 393.14 807.23 L 395.96 808.17 L 398.83 809.10 L 401.77 810.04 L 404.76 810.97 L 407.80 811.91 L 410.90 812.84 L 414.05 813.77 L 417.25 814.71 L 420.49 815.64 L 423.78 816.58 L 427.12 817.51 L 430.49 818.45 L 433.91 819.38 L 437.37 820.31 L 440.87 821.25 L 444.40 822.18 L 447.97 823.12 L 451.56 824.05 L 455.19 824.99 L 458.85 825.92 L 462.53 826.85 L 466.24 827.79 L 469.97 828.72 L 473.73 829.66 L 477.50 830.59 L 481.29 831.53 L 485.09 832.46 L 488.91 833.39 L 492.74 834.33 L 496.58 835.26 L 500.43 836.20 L 504.28 837.13 L 508.14 838.07 L 512.00 839.00"
         fill="none"
         stroke="#9988AA"
         stroke-width="34"
         stroke-linecap="round"
         stroke-linejoin="round"
         opacity="1.0"
         id="path45" />
    </g>
  </g>
</svg>
